<svg width="15" height="13" viewBox="0 0 15 13" fill="none" xmlns="http://www.w3.org/2000/svg">
<path d="M7.4375 5.8125C6.65 6.60625 6.25 7.65 6.25 8.6875V6.5H2.5V9H6.25V8.6875C6.25 9.21875 6.35625 9.75 6.5625 10.25H1.25V6.5H0.625V5.25L1.25 2.125H11.25L11.8062 4.9125C10.35 4.33125 8.61875 4.625 7.4375 5.8125ZM11.25 0.25H1.25V1.5H11.25V0.25ZM14.6187 12.125L13.75 12.9937L11.8 11.075C11.3687 11.3438 10.8562 11.5 10.3125 11.5C8.75 11.5 7.5 10.25 7.5 8.6875C7.5 7.125 8.75 5.875 10.3125 5.875C11.875 5.875 13.125 7.125 13.125 8.6875C13.125 9.2375 12.9688 9.75625 12.6937 10.1875L14.6187 12.125ZM11.875 8.6875C11.875 7.825 11.175 7.125 10.3125 7.125C9.45 7.125 8.75 7.825 8.75 8.6875C8.75 9.55 9.45 10.25 10.3125 10.25C11.175 10.25 11.875 9.55 11.875 8.6875Z" fill="#5E5B5B"/>
</svg>
