<svg width="29" height="27" viewBox="0 0 29 27" fill="none" xmlns="http://www.w3.org/2000/svg">
<path d="M21 9.5C21 11.43 19.43 13 17.5 13C15.57 13 14 11.43 14 9.5C14 7.57 15.57 6 17.5 6C19.43 6 21 7.57 21 9.5ZM11.5 25C12.61 25 13.5 24.11 13.5 23H9.5C9.5 24.11 10.4 25 11.5 25ZM18 15C17.84 15 17.67 15 17.5 15C17 15 16.5 14.92 16 14.79V20H7V13.5C7 11 9 9 11.5 9C11.68 9 11.85 9.03 12 9.05C12.1 8.06 12.45 7.14 13 6.37C12.92 5.6 12.28 5 11.5 5C10.67 5 10 5.67 10 6.5V7.18C7.13 7.86 5 10.43 5 13.5V19L3 21V22H20V21L18 19V15Z" fill="black"/>
<rect x="13" width="16" height="16" rx="8" fill="#EB222A"/>
<path d="M23.4653 8.66455C23.4653 9.82829 23.2666 10.693 22.8691 11.2588C22.4717 11.8245 21.8504 12.1074 21.0054 12.1074C20.1711 12.1074 19.5534 11.8317 19.1523 11.2803C18.7513 10.7253 18.5436 9.89811 18.5293 8.79883V7.47217C18.5293 6.32275 18.728 5.46875 19.1255 4.91016C19.5229 4.35156 20.146 4.07227 20.9946 4.07227C21.8361 4.07227 22.4556 4.34261 22.853 4.8833C23.2505 5.42041 23.4546 6.25114 23.4653 7.37549V8.66455ZM22.4717 7.30566C22.4717 6.46419 22.3535 5.85189 22.1172 5.46875C21.8809 5.08203 21.5067 4.88867 20.9946 4.88867C20.4862 4.88867 20.1156 5.08024 19.8828 5.46338C19.6501 5.84652 19.5301 6.43555 19.5229 7.23047V8.82031C19.5229 9.66536 19.6447 10.2902 19.8882 10.6948C20.1353 11.0959 20.5076 11.2964 21.0054 11.2964C21.4959 11.2964 21.8594 11.1066 22.0957 10.7271C22.3356 10.3475 22.4609 9.74951 22.4717 8.93311V7.30566Z" fill="white"/>
</svg>
