<?xml version="1.0" encoding="utf-8"?>
<!-- Generator: Adobe Illustrator 25.0.1, SVG Export Plug-In . SVG Version: 6.00 Build 0)  -->
<svg version="1.1" id="Layer_1" xmlns="http://www.w3.org/2000/svg" xmlns:xlink="http://www.w3.org/1999/xlink" x="0px" y="0px"
	 viewBox="0 0 595.28 841.89" style="enable-background:new 0 0 595.28 841.89;" xml:space="preserve">
<style type="text/css">
	.st0{fill:#010101;}
</style>
<path class="st0" d="M447.12,407.34c-1.82-6.68-6.54-10.93-11.28-15.38c-21.53-20.22-33.6-45.05-35.32-74.59
	c-1.02-17.56-0.22-35.16-0.37-52.74c-0.07-8.23-0.32-16.48-2.17-24.51c-9.58-41.55-34.45-69.7-74.57-84.2
	c-2.55-0.92-3.04-2.05-3.08-4.48c-0.1-7.46,0.64-14.95-0.55-22.4c-2.44-15.28-15.71-26.62-31.3-26.64
	c-15.86-0.03-29.15,11.21-31.65,26.68c-1.19,7.32-0.49,14.68-0.51,22.02c-0.01,2.8-0.69,4.18-3.46,5.04
	c-13.22,4.12-25.13,10.79-35.65,19.72c-24.64,20.91-38.73,47.41-40.3,79.84c-0.84,17.42-0.32,34.91-0.42,52.36
	c-0.05,9.48-0.78,18.88-3.03,28.14c-5.71,23.47-17.88,42.91-35.94,58.86c-8.63,7.62-11.01,17.5-7.2,27.29
	c3.79,9.76,12.35,15.27,23.74,15.27c25.06,0.01,50.13,0.08,75.19-0.09c3.06-0.02,3.84,1.03,4.46,3.71
	c4.68,20.39,17.08,34.02,36.59,41.37c3.21,1.21,6.74,1.23,9.79,2.9c4.99,0,9.98,0,14.96,0c1.28-1.34,3.01-0.58,4.5-0.96
	c23.18-5.93,37.97-20.22,43.45-43.69c0.56-2.4,1.27-3.34,4.02-3.32c25.81,0.14,51.62,0.15,77.43,0.06
	C440.05,437.54,451.22,422.35,447.12,407.34z M272.56,133.85c0.17-8.68,7.21-15.45,15.89-15.37c8.57,0.08,15.43,6.73,15.66,15.22
	c0.06,2.36,0.01,4.72,0.01,7.09c-0.08,0-0.15,0-0.23,0c0,3.33,1.26,7.63-0.35,9.73c-1.6,2.08-5.96-0.29-9.15-0.23
	c-6.33,0.12-12.69-0.38-18.98,0.74c-2.24,0.4-3.03-0.22-2.92-2.64C272.67,143.55,272.46,138.7,272.56,133.85z M288.61,469.42
	c-18.71,0.29-35.17-12.95-39.1-31.7c26.02,0,51.77,0,77.54,0C324.09,455.55,307.59,469.12,288.61,469.42z M431.35,416.34
	c-1.22,3.09-3.41,4.81-6.71,5.08c-1.24,0.1-2.49,0.14-3.73,0.14c-26.44,0.01-52.87,0.01-79.31,0.01c-17.82,0-35.65,0-53.47,0
	c-44.26,0-88.52-0.01-132.78,0.02c-3.89,0-7.55-0.31-9.66-4.21c-1.96-3.63-1.06-7.17,2.8-10.54c9.74-8.5,18.13-18.15,24.93-29.15
	c12.3-19.91,18.83-41.56,19.08-64.98c0.18-16.83-0.06-33.67,0.07-50.51c0.35-44.23,29.75-82.07,71.98-92.79
	c53.86-13.67,107.81,20.77,117.9,75.34c1.16,6.25,1.66,12.59,1.65,18.97c-0.03,16.09-0.23,32.18,0.04,48.26
	c0.63,36.74,14.75,67.54,41.52,92.6c1.27,1.19,2.69,2.25,3.86,3.53C431.66,410.47,432.61,413.15,431.35,416.34z"/>
</svg>
