<svg width="15" height="15" viewBox="0 0 15 15" fill="none" xmlns="http://www.w3.org/2000/svg">
<g clip-path="url(#clip0_129_93)">
<path d="M12.9574 8.69932L11.3317 7.0777H9.54389V7.88851H10.9993L11.8101 8.69932H8.53038C7.51687 8.69932 6.70605 9.51013 6.70605 10.5236C6.70605 11.5372 7.51687 12.348 8.53038 12.348C9.43038 12.348 10.1763 11.6912 10.3223 10.8358L11.1817 10.3209C11.1655 10.3899 11.1655 10.4547 11.1655 10.5236C11.1655 11.5372 11.9763 12.348 12.9898 12.348C14.0034 12.348 14.8142 11.5372 14.8142 10.5236C14.8142 9.51013 14.0034 8.69932 12.9898 8.69932H12.9574ZM9.47903 10.8318C9.34119 11.2412 8.96822 11.5372 8.51822 11.5372C7.95876 11.5372 7.5047 11.0831 7.5047 10.5236C7.5047 9.96418 7.95876 9.51013 8.51822 9.51013C8.97227 9.51013 9.34119 9.81013 9.47903 10.2196H8.32768V10.8277L9.47903 10.8318ZM12.9777 11.5372C12.4182 11.5372 11.9642 11.0831 11.9642 10.5236C11.9642 9.96418 12.4182 9.51013 12.9777 9.51013C13.2465 9.51013 13.5043 9.61691 13.6943 9.80698C13.8844 9.99705 13.9912 10.2548 13.9912 10.5236C13.9912 10.7924 13.8844 11.0502 13.6943 11.2403C13.5043 11.4304 13.2465 11.5372 12.9777 11.5372Z" fill="#5E5B5B"/>
<path d="M1.43579 7.88855V7.07773H8.73309V7.88855H1.43579ZM8.73309 2.61827V1.40206H7.92228V2.61827H8.73309ZM8.73309 0.591248C8.94813 0.591248 9.15436 0.676672 9.30642 0.828729C9.45847 0.980785 9.5439 1.18702 9.5439 1.40206V2.61827C9.5439 2.83331 9.45847 3.03955 9.30642 3.1916C9.15436 3.34366 8.94813 3.42909 8.73309 3.42909H7.92228V4.6453C7.92228 5.07538 7.75143 5.48785 7.44731 5.79196C7.1432 6.09607 6.73074 6.26692 6.30066 6.26692H3.86822C3.43814 6.26692 3.02568 6.09607 2.72156 5.79196C2.41745 5.48785 2.2466 5.07538 2.2466 4.6453V0.591248H8.73309ZM7.11147 1.40206H3.05741V4.6453C3.05741 4.86034 3.14284 5.06657 3.29489 5.21863C3.44695 5.37069 3.65318 5.45611 3.86822 5.45611H6.30066C6.5157 5.45611 6.72193 5.37069 6.87399 5.21863C7.02604 5.06657 7.11147 4.86034 7.11147 4.6453V1.40206Z" fill="#5E5B5B"/>
</g>
<defs>
<clipPath id="clip0_129_93">
<rect width="15" height="15" fill="white"/>
</clipPath>
</defs>
</svg>
