<svg width="20" height="18" viewBox="0 0 20 18" fill="none" xmlns="http://www.w3.org/2000/svg">
<path d="M7.34625 10.8611H7.03994L7.10132 11.1612L7.32858 12.2723L7.36947 12.4722H7.57351H16.8936C17.2679 12.4722 17.5454 12.8198 17.4624 13.1848L17.2708 14.0278L17.2268 14.2214L17.4054 14.3081C17.9716 14.5829 18.3611 15.1629 18.3611 15.8333C18.3611 16.7775 17.589 17.5412 16.6417 17.5276C15.7401 17.5146 14.9972 16.7815 14.9729 15.8803L14.723 15.8871L14.9729 15.8803C14.9595 15.3873 15.1567 14.941 15.4813 14.623L15.9189 14.1944H15.3064H8.02695H7.41452L7.85199 14.623C8.16639 14.931 8.36111 15.3592 8.36111 15.8333C8.36111 16.796 7.55847 17.5711 6.58556 17.5259C5.7229 17.4858 5.01996 16.7874 4.97462 15.9251C4.93958 15.2584 5.28983 14.6708 5.8236 14.3638L5.98006 14.2738L5.94389 14.097L3.50476 2.17212L3.46387 1.97222H3.25983H0.833334C0.511162 1.97222 0.25 1.71106 0.25 1.38889V0.833334C0.25 0.511162 0.511162 0.25 0.833334 0.25H4.39337C4.67047 0.25 4.90932 0.444949 4.96486 0.71642C4.96486 0.716423 4.96487 0.716425 4.96487 0.716428L5.28313 2.27232L5.32402 2.47222H5.52806H19.1663C19.5406 2.47222 19.8181 2.81982 19.7351 3.18484L18.0937 10.4071C18.0334 10.6726 17.7973 10.8611 17.5249 10.8611H7.34625ZM12.1381 9.88215L12.1381 9.88213L14.4655 7.55473C14.8855 7.13476 14.588 6.41667 13.9941 6.41667H12.75V4.58333C12.75 4.21516 12.4515 3.91667 12.0833 3.91667H11.25C10.8818 3.91667 10.5833 4.21516 10.5833 4.58333V6.41667H9.33927C8.74535 6.41667 8.44787 7.13476 8.86788 7.55473C8.86788 7.55473 8.86789 7.55474 8.86789 7.55474L11.1953 9.88213C11.4556 10.1425 11.8777 10.1424 12.1381 9.88215Z" fill="white" stroke="black" stroke-width="0.5"/>
</svg>
