<svg width="18" height="18" viewBox="0 0 18 18" fill="none" xmlns="http://www.w3.org/2000/svg">
<path d="M14.069 14.0345C14.5079 14.0345 14.9289 14.2089 15.2393 14.5193C15.5497 14.8297 15.7241 15.2507 15.7241 15.6897C15.7241 16.1286 15.5497 16.5496 15.2393 16.86C14.9289 17.1704 14.5079 17.3448 14.069 17.3448C13.1503 17.3448 12.4138 16.6 12.4138 15.6897C12.4138 14.771 13.1503 14.0345 14.069 14.0345ZM0.827576 0.793106H3.53378L4.31171 2.44828H16.5517C16.7712 2.44828 16.9817 2.53547 17.1369 2.69067C17.2921 2.84588 17.3793 3.05638 17.3793 3.27586C17.3793 3.41655 17.3379 3.55724 17.28 3.68966L14.3172 9.04414C14.0359 9.54897 13.4896 9.89655 12.869 9.89655H6.70344L5.95861 11.2455L5.93378 11.3448C5.93378 11.3997 5.95558 11.4523 5.99438 11.4911C6.03318 11.5299 6.08581 11.5517 6.14068 11.5517H15.7241V13.2069H5.79309C4.87447 13.2069 4.13792 12.4621 4.13792 11.5517C4.13792 11.2621 4.2124 10.989 4.33654 10.7572L5.46206 8.72966L2.48275 2.44828H0.827576V0.793106ZM5.79309 14.0345C6.23207 14.0345 6.65307 14.2089 6.96348 14.5193C7.27388 14.8297 7.44827 15.2507 7.44827 15.6897C7.44827 16.1286 7.27388 16.5496 6.96348 16.86C6.65307 17.1704 6.23207 17.3448 5.79309 17.3448C4.87447 17.3448 4.13792 16.6 4.13792 15.6897C4.13792 14.771 4.87447 14.0345 5.79309 14.0345ZM13.2414 8.24138L15.5421 4.10345H5.08137L7.03447 8.24138H13.2414Z" fill="black"/>
</svg>
