<svg width="25" height="24" viewBox="0 0 25 24" fill="none" xmlns="http://www.w3.org/2000/svg">
<path d="M24.2083 3.26713C24.0203 3.07933 23.7674 2.97571 23.5016 2.97571C23.2358 2.97571 22.983 3.08257 22.795 3.26713L19.816 6.23961C19.628 6.42741 19.5243 6.67998 19.5243 6.94549V18C19.5243 18.2655 19.4173 18.5181 19.2326 18.7059C19.0446 18.8937 18.7917 18.9973 18.5259 18.9973H16.5227V4.99946C16.5227 3.67512 15.9943 2.40259 15.0543 1.46681C14.1143 0.527793 12.8436 0.00323799 11.5178 0H5.50486C4.17909 0 2.90519 0.527793 1.9684 1.46681C1.02836 2.40583 0.503241 3.67512 0.5 4.99946V19.0005C0.5 20.3249 1.02836 21.5974 1.9684 22.5332C2.90843 23.4722 4.17909 23.9968 5.50486 24H11.5113C12.4838 24 13.4368 23.7151 14.2504 23.1808C15.064 22.6465 15.7058 21.8888 16.0948 20.9984H18.5227C19.3201 20.9984 20.0818 20.6811 20.6459 20.1209C21.2099 19.5575 21.5243 18.7965 21.5243 18V7.35996L24.2083 4.6789C24.3963 4.4911 24.5 4.23853 24.5 3.97302C24.5 3.7075 24.3963 3.45494 24.2083 3.26713ZM14.5162 19.0005C14.5162 19.7971 14.1985 20.558 13.6378 21.1214C13.0737 21.6848 12.312 21.9989 11.5146 21.9989H5.50486C4.70746 21.9989 3.94571 21.6816 3.38169 21.1214C2.81767 20.558 2.50324 19.7971 2.50324 19.0005V10.9995H14.5162V19.0005ZM14.5162 9.00162H12.8404H12.513H10.5097H6.50648H4.50324H4.01702H2.5V4.99946C2.5 4.20291 2.81767 3.44199 3.37844 2.87858C3.93922 2.31516 4.70421 2.00108 5.50162 2.00108H11.5081C12.3055 2.00108 13.0673 2.3184 13.6313 2.87858C14.1953 3.43875 14.5097 4.20291 14.5097 4.99946V9.00162H14.5162Z" fill="#39B54A"/>
<path d="M9.45299 13.6417L8.93111 13.8975C8.93111 13.8975 6.56482 16.7696 6.5162 16.7696C6.46758 16.7696 8.10453 17.061 8.10453 17.061L7.60858 19.3632L8.24067 19.1689L10.4352 16.177L9.00242 15.8985L9.45299 13.6417Z" fill="#39B54A"/>
<path d="M6.0105 7.10417V3.89208C6.0105 3.88236 6.02022 3.87265 6.02995 3.87265H10.7236C10.7334 3.87265 10.7431 3.88236 10.7431 3.89208V7.10417C10.7431 7.11388 10.7334 7.12359 10.7236 7.12359H6.02995C6.02022 7.12359 6.0105 7.11712 6.0105 7.10417Z" stroke="#39B54A" stroke-miterlimit="10"/>
<path d="M9.32751 6.44544L9.32751 4.50912L8.95474 4.50912L8.95474 6.44544L9.32751 6.44544Z" fill="#39B54A"/>
<path d="M8.55499 6.44648L8.55499 4.51016L8.18222 4.51016L8.18222 6.44648L8.55499 6.44648Z" fill="#39B54A"/>
<path d="M7.79333 6.44638L7.79333 4.51006L7.42056 4.51006L7.42056 6.44638L7.79333 6.44638Z" fill="#39B54A"/>
<path d="M7.03168 6.44625L7.03168 4.50993L6.65891 4.50993L6.65891 6.44625L7.03168 6.44625Z" fill="#39B54A"/>
<path d="M11.2099 6.42742V4.57205C11.2099 4.56557 11.2164 4.5591 11.2229 4.5591H12.3088C12.3152 4.5591 12.3217 4.56557 12.3217 4.57205V6.42742C12.3217 6.43389 12.3152 6.44037 12.3088 6.44037H11.2229C11.2164 6.44037 11.2099 6.43389 11.2099 6.42742Z" fill="#39B54A"/>
</svg>
