<svg width="15" height="13" viewBox="0 0 15 13" fill="none" xmlns="http://www.w3.org/2000/svg">
<path d="M7.50038 11.5085C7.51271 11.6117 7.50131 11.7163 7.46705 11.8143C7.43278 11.9124 7.37655 12.0014 7.30266 12.0744C7.17492 12.2014 7.00212 12.2727 6.822 12.2727C6.64189 12.2727 6.46909 12.2014 6.34135 12.0744L3.61421 9.34726C3.53812 9.27414 3.48004 9.18435 3.44455 9.08498C3.40906 8.9856 3.39712 8.87934 3.40967 8.77456V5.28382L0.14393 1.10449C0.0332138 0.962358 -0.0167436 0.782182 0.00497398 0.603331C0.0266916 0.42448 0.118319 0.261496 0.259833 0.149992C0.379786 0.0537515 0.528753 0.000892048 0.682539 0H10.2275C10.3813 0.000892048 10.5303 0.0537515 10.6502 0.149992C10.7917 0.261496 10.8834 0.42448 10.9051 0.603331C10.9268 0.782182 10.8768 0.962358 10.7661 1.10449L7.50038 5.28382V11.5085ZM2.04611 1.36357L4.77324 4.81339V8.57684L6.13681 9.94041V4.80658L8.86395 1.36357H2.04611ZM8.18216 9.54497L11.5911 12.9539L15 9.54497H8.18216Z" fill="black"/>
</svg>
