<svg width="13" height="13" viewBox="0 0 13 13" fill="none" xmlns="http://www.w3.org/2000/svg">
<path d="M10.7 8.05829C10.9187 7.52704 11.0375 6.95829 11.0375 6.33329C11.0375 5.88329 10.9687 5.45204 10.85 5.05204C10.4437 5.14579 10.0188 5.1958 9.575 5.1958C7.6625 5.1958 5.96875 4.25204 4.9375 2.79579C4.38125 4.14579 3.31875 5.24579 1.98125 5.84579C1.95625 6.00204 1.95625 6.17079 1.95625 6.33329C1.95625 7.53837 2.43497 8.69409 3.28708 9.54621C4.1392 10.3983 5.29492 10.877 6.5 10.877C7.15625 10.877 7.7875 10.7333 8.35625 10.477C8.7125 11.1583 8.875 11.4958 8.8625 11.4958C7.8375 11.8395 7.04375 12.0083 6.5 12.0083C4.9875 12.0083 3.54375 11.4145 2.48125 10.3458C1.83125 9.6958 1.35 8.90204 1.08125 8.03954H0.25V5.1958H0.93125C1.45625 2.60829 3.75 0.658295 6.5 0.658295C8 0.658295 9.44375 1.25204 10.5125 2.32079C11.3062 3.10829 11.8375 4.11454 12.0562 5.1958H12.75V8.00204V8.01454V8.03954H12.7125L10.4875 10.0833L7.175 9.70829V8.66454H10.1938L10.7 8.05829ZM4.79375 6.18954C4.98125 6.18954 5.1625 6.26454 5.29375 6.40204C5.425 6.53329 5.5 6.71454 5.5 6.90204C5.5 7.08954 5.425 7.27079 5.29375 7.40204C5.1625 7.53329 4.98125 7.60829 4.79375 7.60829C4.4 7.60829 4.08125 7.29579 4.08125 6.90204C4.08125 6.50829 4.4 6.18954 4.79375 6.18954ZM8.2 6.18954C8.59375 6.18954 8.90625 6.50829 8.90625 6.90204C8.90625 7.29579 8.59375 7.60829 8.2 7.60829C7.80625 7.60829 7.4875 7.29579 7.4875 6.90204C7.4875 6.71308 7.56257 6.53185 7.69619 6.39823C7.82981 6.26461 8.01103 6.18954 8.2 6.18954Z" fill="#5E5B5B"/>
</svg>
