<svg width="13" height="13" viewBox="0 0 13 13" fill="none" xmlns="http://www.w3.org/2000/svg">
<path d="M9 9.45831V7.58331H4.625V5.08331H9V3.20831L12.125 6.33331L9 9.45831ZM7.75 0.083313C8.08152 0.083313 8.39946 0.215009 8.63388 0.449429C8.8683 0.68385 9 1.00179 9 1.33331V2.58331H7.75V1.33331H2.125V11.3333H7.75V10.0833H9V11.3333C9 11.6648 8.8683 11.9828 8.63388 12.2172C8.39946 12.4516 8.08152 12.5833 7.75 12.5833H2.125C1.79348 12.5833 1.47554 12.4516 1.24112 12.2172C1.0067 11.9828 0.875 11.6648 0.875 11.3333V1.33331C0.875 1.00179 1.0067 0.68385 1.24112 0.449429C1.47554 0.215009 1.79348 0.083313 2.125 0.083313H7.75Z" fill="#5E5B5B"/>
</svg>
