<svg width="15" height="16" viewBox="0 0 15 16" fill="none" xmlns="http://www.w3.org/2000/svg">
<path d="M13.3333 10.8333H11.6667V9.16667H13.3333V10.8333ZM13.3333 14.1667H11.6667V12.5H13.3333V14.1667ZM8.33333 4.16667H6.66667V2.5H8.33333V4.16667ZM8.33333 7.5H6.66667V5.83333H8.33333V7.5ZM8.33333 10.8333H6.66667V9.16667H8.33333V10.8333ZM8.33333 14.1667H6.66667V12.5H8.33333V14.1667ZM3.33333 7.5H1.66667V5.83333H3.33333V7.5ZM3.33333 10.8333H1.66667V9.16667H3.33333V10.8333ZM3.33333 14.1667H1.66667V12.5H3.33333V14.1667ZM10 7.5V2.5L7.5 0L5 2.5V4.16667H0V15.8333H15V7.5H10Z" fill="#5E5B5B"/>
</svg>
