<svg width="15" height="15" viewBox="0 0 15 15" fill="none" xmlns="http://www.w3.org/2000/svg">
<path d="M10.625 11.25C9.93125 11.25 9.375 11.8062 9.375 12.5C9.375 12.8315 9.5067 13.1495 9.74112 13.3839C9.97554 13.6183 10.2935 13.75 10.625 13.75C10.9565 13.75 11.2745 13.6183 11.5089 13.3839C11.7433 13.1495 11.875 12.8315 11.875 12.5C11.875 11.8062 11.3125 11.25 10.625 11.25ZM0.625 1.25V2.5H1.875L4.125 7.24375L3.275 8.775C3.18125 8.95 3.125 9.15625 3.125 9.375C3.125 9.70652 3.2567 10.0245 3.49112 10.2589C3.72554 10.4933 4.04348 10.625 4.375 10.625H11.875V9.375H4.6375C4.59606 9.375 4.55632 9.35854 4.52701 9.32924C4.49771 9.29993 4.48125 9.26019 4.48125 9.21875C4.48125 9.1875 4.4875 9.1625 4.5 9.14375L5.0625 8.125H9.71875C10.1875 8.125 10.6 7.8625 10.8125 7.48125L13.05 3.4375C13.0937 3.3375 13.125 3.23125 13.125 3.125C13.125 2.95924 13.0592 2.80027 12.9419 2.68306C12.8247 2.56585 12.6658 2.5 12.5 2.5H3.25625L2.66875 1.25H0.625ZM4.375 11.25C3.68125 11.25 3.125 11.8062 3.125 12.5C3.125 12.8315 3.2567 13.1495 3.49112 13.3839C3.72554 13.6183 4.04348 13.75 4.375 13.75C4.70652 13.75 5.02446 13.6183 5.25888 13.3839C5.4933 13.1495 5.625 12.8315 5.625 12.5C5.625 11.8062 5.0625 11.25 4.375 11.25Z" fill="#5E5B5B"/>
</svg>
