<svg width="15" height="16" viewBox="0 0 15 16" fill="none" xmlns="http://www.w3.org/2000/svg">
<g clip-path="url(#clip0_129_115)">
<path d="M13.125 12.7083V13.3333H1.875V12.7083L3.125 11.4583V7.70831C3.125 5.77081 4.39375 4.06456 6.25 3.51456C6.25 3.45206 6.25 3.39581 6.25 3.33331C6.25 3.00179 6.3817 2.68385 6.61612 2.44943C6.85054 2.21501 7.16848 2.08331 7.5 2.08331C7.83152 2.08331 8.14946 2.21501 8.38388 2.44943C8.6183 2.68385 8.75 3.00179 8.75 3.33331C8.75 3.39581 8.75 3.45206 8.75 3.51456C10.6062 4.06456 11.875 5.77081 11.875 7.70831V11.4583L13.125 12.7083ZM8.75 13.9583C8.75 14.2898 8.6183 14.6078 8.38388 14.8422C8.14946 15.0766 7.83152 15.2083 7.5 15.2083C7.16848 15.2083 6.85054 15.0766 6.61612 14.8422C6.3817 14.6078 6.25 14.2898 6.25 13.9583" fill="#5E5B5B"/>
</g>
<defs>
<clipPath id="clip0_129_115">
<rect width="15" height="15" fill="white" transform="translate(0 0.833313)"/>
</clipPath>
</defs>
</svg>
