<svg width="11" height="11" viewBox="0 0 11 11" fill="none" xmlns="http://www.w3.org/2000/svg">
<path d="M5.5 0.333313C6.16304 0.333313 6.79893 0.596705 7.26777 1.06555C7.73661 1.53439 8 2.17027 8 2.83331C8 3.49635 7.73661 4.13224 7.26777 4.60108C6.79893 5.06992 6.16304 5.33331 5.5 5.33331C4.83696 5.33331 4.20107 5.06992 3.73223 4.60108C3.26339 4.13224 3 3.49635 3 2.83331C3 2.17027 3.26339 1.53439 3.73223 1.06555C4.20107 0.596705 4.83696 0.333313 5.5 0.333313ZM5.5 6.58331C8.2625 6.58331 10.5 7.70206 10.5 9.08331V10.3333H0.5V9.08331C0.5 7.70206 2.7375 6.58331 5.5 6.58331Z" fill="#5E5B5B"/>
</svg>
