<svg width="15" height="15" viewBox="0 0 15 15" fill="none" xmlns="http://www.w3.org/2000/svg">
<path d="M1.875 3.75H10L11.875 6.25H13.125C13.8188 6.25 14.375 6.80625 14.375 7.5V9.375H13.125C13.125 9.87228 12.9275 10.3492 12.5758 10.7008C12.2242 11.0525 11.7473 11.25 11.25 11.25C10.7527 11.25 10.2758 11.0525 9.92417 10.7008C9.57254 10.3492 9.375 9.87228 9.375 9.375H5.625C5.625 9.87228 5.42746 10.3492 5.07583 10.7008C4.7242 11.0525 4.24728 11.25 3.75 11.25C3.25272 11.25 2.77581 11.0525 2.42417 10.7008C2.07254 10.3492 1.875 9.87228 1.875 9.375H0.625V5C0.625 4.30625 1.18125 3.75 1.875 3.75ZM1.5625 4.6875V6.25H6.5625V4.6875H1.5625ZM7.5 4.6875V6.25H10.7125L9.53125 4.6875H7.5ZM3.75 8.4375C3.50136 8.4375 3.2629 8.53627 3.08709 8.71209C2.91127 8.8879 2.8125 9.12636 2.8125 9.375C2.8125 9.62364 2.91127 9.8621 3.08709 10.0379C3.2629 10.2137 3.50136 10.3125 3.75 10.3125C3.99864 10.3125 4.2371 10.2137 4.41291 10.0379C4.58873 9.8621 4.6875 9.62364 4.6875 9.375C4.6875 9.12636 4.58873 8.8879 4.41291 8.71209C4.2371 8.53627 3.99864 8.4375 3.75 8.4375ZM11.25 8.4375C11.0014 8.4375 10.7629 8.53627 10.5871 8.71209C10.4113 8.8879 10.3125 9.12636 10.3125 9.375C10.3125 9.62364 10.4113 9.8621 10.5871 10.0379C10.7629 10.2137 11.0014 10.3125 11.25 10.3125C11.4986 10.3125 11.7371 10.2137 11.9129 10.0379C12.0887 9.8621 12.1875 9.62364 12.1875 9.375C12.1875 9.12636 12.0887 8.8879 11.9129 8.71209C11.7371 8.53627 11.4986 8.4375 11.25 8.4375Z" fill="#5E5B5B"/>
</svg>
