<svg width="15" height="16" viewBox="0 0 15 16" fill="none" xmlns="http://www.w3.org/2000/svg">
<g clip-path="url(#clip0_1531_453)">
<path d="M2.19474 10.8841C2.20894 10.572 2.15567 10.2607 2.03903 9.97402C1.9224 9.68737 1.74552 9.43307 1.52202 9.23074C0.56003 8.24913 0.554985 8.2348 1.51193 7.27826C2.12074 6.67103 2.38983 5.98498 2.09719 5.11263C2.07066 5.00861 2.05598 4.90155 2.05347 4.79379C1.96434 3.89816 2.03329 3.77815 2.86242 3.71903C3.92195 3.63484 4.65185 3.15837 5.02353 2.04421C5.28589 1.25426 5.59198 1.12529 6.24284 1.57848C7.1981 2.24304 8.05246 2.25021 9.00941 1.57848C9.68213 1.11276 9.83181 1.22023 10.2203 1.98152C10.3025 2.13734 10.3733 2.29962 10.4322 2.46695C10.5277 2.81415 10.73 3.11706 11.0067 3.32695C11.2834 3.53684 11.6183 3.6415 11.9576 3.6241H12.0081C13.1853 3.72441 13.3535 3.83726 13.118 5.03382C12.9095 6.10857 13.2105 6.82508 13.9438 7.50576C14.6451 8.16315 14.6737 8.40139 13.959 8.99967C13.0289 9.78245 12.9095 10.6852 13.182 11.803C13.3501 12.5016 13.182 12.7076 12.5193 12.8204C12.2553 12.8634 11.9879 12.901 11.7238 12.9476C11.4653 12.991 11.2205 13.1001 11.01 13.2656C10.7995 13.4312 10.6296 13.6484 10.5146 13.8988C10.37 14.18 10.2405 14.472 10.1076 14.7604C9.90244 15.2046 9.59467 15.2888 9.19608 15.0595C9.13722 15.0255 9.07331 15.0004 9.01781 14.961C8.09955 14.2767 7.19978 14.2946 6.25293 14.9413C5.5903 15.3909 5.34476 15.2995 5.05885 14.5436C4.64345 13.4438 3.94886 12.867 2.81869 12.8115C2.05179 12.7721 1.94079 12.5535 2.05683 11.7367C2.0972 11.3946 2.16447 11.0614 2.19474 10.8841Z" fill="#5E5B5B"/>
<path d="M5.53147 10.9002C5.46799 10.8931 5.40705 10.8698 5.35376 10.8324C5.30048 10.795 5.2564 10.7445 5.22525 10.6852C5.19411 10.6258 5.17679 10.5594 5.17476 10.4915C5.17273 10.4235 5.18606 10.3561 5.2136 10.2947C5.2817 10.1715 5.36673 10.0598 5.46587 9.96335C6.7205 8.6211 7.97737 7.27945 9.23648 5.93839C9.45175 5.70732 9.69897 5.48521 9.96638 5.75927C10.2338 6.03333 9.99665 6.32352 9.7982 6.53847C8.52003 7.90699 7.23849 9.27312 5.9536 10.6369C5.84489 10.773 5.69609 10.8658 5.53147 10.9002Z" fill="white"/>
<path d="M7.21997 6.59939C7.21998 6.92405 7.09935 7.23552 6.88444 7.46576C6.66953 7.696 6.3778 7.8263 6.07299 7.82819C5.75945 7.8273 5.45875 7.69547 5.23548 7.46102C5.01221 7.22657 4.88419 6.9082 4.87891 6.57431C4.89717 6.25158 5.02556 5.94708 5.2399 5.71813C5.45424 5.48918 5.73975 5.35156 6.04271 5.33118C6.19845 5.33117 6.35265 5.36407 6.49636 5.42798C6.64008 5.49188 6.77046 5.58553 6.87996 5.70348C6.98945 5.82144 7.07588 5.96136 7.13425 6.11515C7.19261 6.26893 7.22175 6.43353 7.21997 6.59939Z" fill="white"/>
<path d="M9.15411 8.67007C9.46655 8.66993 9.76676 8.7995 9.99096 9.03128C10.2152 9.26305 10.3457 9.57878 10.3549 9.91142C10.3358 10.2343 10.2067 10.5386 9.99174 10.7672C9.77681 10.9958 9.4909 11.1329 9.18774 11.1528C8.87685 11.1455 8.58045 11.0114 8.35978 10.778C8.13912 10.5447 8.01106 10.2299 8.00208 9.89888C8.0047 9.57415 8.12687 9.2635 8.3423 9.03371C8.55773 8.80392 8.84923 8.67335 9.15411 8.67007Z" fill="white"/>
<path d="M6.05107 7.00599C6.00082 7.00632 5.95103 6.99569 5.90478 6.97475C5.85853 6.95381 5.81679 6.92301 5.78213 6.88425C5.74747 6.84549 5.72062 6.79959 5.70324 6.74936C5.68586 6.69914 5.67832 6.64566 5.68108 6.59221C5.67482 6.53901 5.67985 6.485 5.6958 6.43415C5.71175 6.3833 5.73822 6.33691 5.77324 6.2984C5.80826 6.2599 5.85096 6.23026 5.89817 6.21166C5.94538 6.19307 5.99591 6.186 6.04603 6.19097C6.10027 6.18262 6.15558 6.18783 6.2076 6.20618C6.25962 6.22454 6.30692 6.25554 6.34575 6.29672C6.38458 6.3379 6.41388 6.38815 6.43133 6.44347C6.44878 6.4988 6.45391 6.5577 6.4463 6.6155C6.44572 6.66921 6.43487 6.72223 6.41444 6.77134C6.394 6.82044 6.36439 6.86461 6.32742 6.90114C6.29045 6.93768 6.24688 6.96581 6.19937 6.98384C6.15186 7.00186 6.10141 7.0094 6.05107 7.00599V7.00599Z" fill="#5E5B5B"/>
<path d="M9.54589 9.93468C9.54779 9.98578 9.5394 10.0367 9.52128 10.0841C9.50316 10.1314 9.47574 10.1741 9.44084 10.2092C9.40595 10.2443 9.36441 10.2711 9.31899 10.2877C9.27358 10.3043 9.22537 10.3104 9.17758 10.3055C9.07677 10.3055 8.98009 10.2628 8.90881 10.1869C8.83753 10.111 8.79749 10.008 8.79749 9.90065C8.79749 9.79328 8.83753 9.69032 8.90881 9.6144C8.98009 9.53848 9.07677 9.49582 9.17758 9.49582C9.23018 9.49423 9.28248 9.50489 9.33082 9.52705C9.37916 9.54921 9.42238 9.58234 9.45745 9.62413C9.49252 9.66592 9.5186 9.71536 9.53388 9.769C9.54916 9.82264 9.55326 9.87918 9.54589 9.93468Z" fill="#5E5B5B"/>
</g>
<defs>
<clipPath id="clip0_1531_453">
<rect width="15" height="15" fill="white" transform="translate(0 0.833313)"/>
</clipPath>
</defs>
</svg>
