<svg width="13" height="13" viewBox="0 0 13 13" fill="none" xmlns="http://www.w3.org/2000/svg">
<path d="M6.50002 3.83331C7.16306 3.83331 7.79895 4.0967 8.26779 4.56555C8.73663 5.03439 9.00002 5.67027 9.00002 6.33331C9.00002 6.99635 8.73663 7.63224 8.26779 8.10108C7.79895 8.56992 7.16306 8.83331 6.50002 8.83331C5.83698 8.83331 5.2011 8.56992 4.73225 8.10108C4.26341 7.63224 4.00002 6.99635 4.00002 6.33331C4.00002 5.67027 4.26341 5.03439 4.73225 4.56555C5.2011 4.0967 5.83698 3.83331 6.50002 3.83331ZM6.50002 5.08331C6.1685 5.08331 5.85056 5.21501 5.61614 5.44943C5.38172 5.68385 5.25002 6.00179 5.25002 6.33331C5.25002 6.66483 5.38172 6.98278 5.61614 7.2172C5.85056 7.45162 6.1685 7.58331 6.50002 7.58331C6.83154 7.58331 7.14948 7.45162 7.38391 7.2172C7.61833 6.98278 7.75002 6.66483 7.75002 6.33331C7.75002 6.00179 7.61833 5.68385 7.38391 5.44943C7.14948 5.21501 6.83154 5.08331 6.50002 5.08331ZM5.25002 12.5833C5.09377 12.5833 4.96252 12.4708 4.93752 12.3208L4.70627 10.6646C4.31252 10.5083 3.97502 10.2958 3.65002 10.0458L2.09377 10.6771C1.95627 10.7271 1.78752 10.6771 1.71252 10.5396L0.462522 8.37706C0.381272 8.23956 0.418772 8.07081 0.537522 7.97706L1.85627 6.93956L1.81252 6.33331L1.85627 5.70831L0.537522 4.68956C0.418772 4.59581 0.381272 4.42706 0.462522 4.28956L1.71252 2.12706C1.78752 1.98956 1.95627 1.93331 2.09377 1.98956L3.65002 2.61456C3.97502 2.37081 4.31252 2.15831 4.70627 2.00206L4.93752 0.345813C4.96252 0.195813 5.09377 0.083313 5.25002 0.083313H7.75002C7.90627 0.083313 8.03752 0.195813 8.06252 0.345813L8.29377 2.00206C8.68752 2.15831 9.02502 2.37081 9.35002 2.61456L10.9063 1.98956C11.0438 1.93331 11.2125 1.98956 11.2875 2.12706L12.5375 4.28956C12.6188 4.42706 12.5813 4.59581 12.4625 4.68956L11.1438 5.70831L11.1875 6.33331L11.1438 6.95831L12.4625 7.97706C12.5813 8.07081 12.6188 8.23956 12.5375 8.37706L11.2875 10.5396C11.2125 10.6771 11.0438 10.7333 10.9063 10.6771L9.35002 10.0521C9.02502 10.2958 8.68752 10.5083 8.29377 10.6646L8.06252 12.3208C8.03752 12.4708 7.90627 12.5833 7.75002 12.5833H5.25002ZM6.03127 1.33331L5.80002 2.96456C5.05002 3.12081 4.38752 3.52081 3.90627 4.07706L2.40002 3.42706L1.93127 4.23956L3.25002 5.20831C3.00002 5.93956 3.00002 6.73331 3.25002 7.45831L1.92502 8.43331L2.39377 9.24581L3.91252 8.59581C4.39377 9.14581 5.05002 9.54581 5.79377 9.69581L6.02502 11.3333H6.97502L7.20627 9.70206C7.95002 9.54581 8.60627 9.14581 9.08752 8.59581L10.6063 9.24581L11.075 8.43331L9.75002 7.46456C10 6.73331 10 5.93956 9.75002 5.20831L11.0688 4.23956L10.6 3.42706L9.09377 4.07706C8.61252 3.52081 7.95002 3.12081 7.20002 2.97081L6.96877 1.33331H6.03127Z" fill="#5E5B5B"/>
</svg>
