<svg width="15" height="15" viewBox="0 0 15 15" fill="none" xmlns="http://www.w3.org/2000/svg">
<path d="M7.4375 6.8125C6.65 7.60625 6.25 8.65 6.25 9.6875V7.5H2.5V10H6.25V9.6875C6.25 10.2188 6.35625 10.75 6.5625 11.25H1.25V7.5H0.625V6.25L1.25 3.125H11.25L11.8062 5.9125C10.35 5.33125 8.61875 5.625 7.4375 6.8125ZM11.25 1.25H1.25V2.5H11.25V1.25ZM14.6187 13.125L13.75 13.9937L11.8 12.075C11.3687 12.3438 10.8562 12.5 10.3125 12.5C8.75 12.5 7.5 11.25 7.5 9.6875C7.5 8.125 8.75 6.875 10.3125 6.875C11.875 6.875 13.125 8.125 13.125 9.6875C13.125 10.2375 12.9688 10.7562 12.6937 11.1875L14.6187 13.125ZM11.875 9.6875C11.875 8.825 11.175 8.125 10.3125 8.125C9.45 8.125 8.75 8.825 8.75 9.6875C8.75 10.55 9.45 11.25 10.3125 11.25C11.175 11.25 11.875 10.55 11.875 9.6875Z" fill="#5E5B5B"/>
</svg>
