<svg width="20" height="20" viewBox="0 0 20 20" fill="none" xmlns="http://www.w3.org/2000/svg">
<path d="M16.72 13.0396C17.07 12.1035 17.26 11.1013 17.26 10C17.26 9.20705 17.15 8.44714 16.96 7.74229C16.31 7.90749 15.63 7.99559 14.92 7.99559C11.86 7.99559 9.15 6.3326 7.5 3.76652C6.61 6.14537 4.91 8.0837 2.77 9.14097C2.73 9.4163 2.73 9.71366 2.73 10C2.73 12.1235 3.49594 14.16 4.85933 15.6615C6.22272 17.1631 8.07188 18.0066 10 18.0066C11.05 18.0066 12.06 17.7533 12.97 17.3018C13.54 18.5022 13.8 19.0969 13.78 19.0969C12.14 19.7026 10.87 20 10 20C7.58 20 5.27 18.9537 3.57 17.0705C2.53 15.9251 1.76 14.5264 1.33 13.0066H0V7.99559H1.09C1.93 3.43612 5.6 0 10 0C12.4 0 14.71 1.04626 16.42 2.92952C17.69 4.31718 18.54 6.09031 18.89 7.99559H20V12.9405V12.9626V13.0066H19.94L16.38 16.6079L11.08 15.9471V14.1079H15.91L16.72 13.0396ZM7.27 9.7467C7.57 9.7467 7.86 9.87885 8.07 10.1211C8.28 10.3524 8.4 10.6718 8.4 11.0022C8.4 11.3326 8.28 11.652 8.07 11.8833C7.86 12.1145 7.57 12.2467 7.27 12.2467C6.64 12.2467 6.13 11.696 6.13 11.0022C6.13 10.3084 6.64 9.7467 7.27 9.7467ZM12.72 9.7467C13.35 9.7467 13.85 10.3084 13.85 11.0022C13.85 11.696 13.35 12.2467 12.72 12.2467C12.09 12.2467 11.58 11.696 11.58 11.0022C11.58 10.6692 11.7001 10.3499 11.9139 10.1144C12.1277 9.87897 12.4177 9.7467 12.72 9.7467Z" fill="black"/>
</svg>
