<svg width="15" height="16" viewBox="0 0 15 16" fill="none" xmlns="http://www.w3.org/2000/svg">
<path d="M12.1768 2.26588H0.716284V0.833313H12.1768V2.26588ZM11.4605 6.56358C10.0924 6.56358 8.86043 7.10796 7.95791 7.99615H7.87912V8.07494C6.99093 8.97746 6.44655 10.2095 6.44655 11.5776C6.44655 11.8211 6.46804 12.0575 6.50386 12.2939H0.716284V7.99615H0V6.56358L0.716284 2.98216H12.1768L12.8931 6.56358V6.77847C12.4418 6.64237 11.9619 6.56358 11.4605 6.56358ZM6.44655 7.99615H2.14885V10.8613H6.44655V7.99615ZM11.4319 6.56358L11.0021 4.41473H1.89099L1.46122 6.56358H11.4319ZM14.8987 12.5804C14.9703 12.5804 14.9703 12.652 14.8987 12.7236L14.1824 13.9413C14.1108 14.0129 14.0392 14.0129 13.9675 14.0129L13.108 13.7264C12.8931 13.8697 12.7499 13.9413 12.535 14.0846L12.3917 15.0157C12.3917 15.0874 12.3201 15.159 12.2485 15.159H10.8159C10.7443 15.159 10.6726 15.0874 10.601 15.0157L10.4577 14.0846C10.2429 14.0129 10.028 13.8697 9.88472 13.7264L9.02518 14.0846C8.95355 14.0846 8.88192 14.0846 8.81029 14.0129L8.09401 12.7953C8.02238 12.7236 8.09401 12.652 8.16563 12.5804L8.95355 12.0073V11.2911L8.16563 10.718C8.09401 10.6464 8.09401 10.5748 8.09401 10.5031L8.81029 9.28546C8.88192 9.21383 8.95355 9.21383 9.02518 9.21383L9.88472 9.57197C10.0996 9.42872 10.2429 9.35709 10.4577 9.21383L10.601 8.28266C10.601 8.21104 10.6726 8.13941 10.8159 8.13941H12.2485C12.3201 8.13941 12.3917 8.21104 12.3917 8.28266L12.535 9.21383C12.7499 9.28546 12.9647 9.42872 13.1796 9.57197L14.0392 9.21383C14.1108 9.21383 14.254 9.21383 14.254 9.28546L14.9703 10.5031C15.042 10.5748 14.9703 10.6464 14.8987 10.718L14.1108 11.2911V12.0073L14.8987 12.5804ZM12.535 11.5776C12.535 11.0045 12.0336 10.5031 11.4605 10.5031C10.8875 10.5031 10.3861 11.0045 10.3861 11.5776C10.3861 12.1506 10.8875 12.652 11.4605 12.652C12.0336 12.652 12.535 12.1506 12.535 11.5776Z" fill="#5E5B5B"/>
</svg>
