<svg width="15" height="16" viewBox="0 0 15 16" fill="none" xmlns="http://www.w3.org/2000/svg">
<g clip-path="url(#clip0_420_165)">
<path d="M13.4211 2.90463H0.789474V1.32568H13.4211V2.90463ZM8.92105 7.64147C8.28947 8.39937 7.89474 9.36253 7.89474 10.4046C7.89474 11.3046 8.23421 12.2678 8.68421 13.1678V13.9573H0.789474V9.22042H0V7.64147L0.789474 3.6941H13.4211L13.9737 6.45726C13.4526 6.20463 12.8842 6.06253 12.2842 6.06253L12.1263 5.27305H2.08421L1.61053 7.64147H8.92105ZM7.10526 9.22042H2.36842V12.3783H7.10526V9.22042ZM15 10.4046C15 12.4573 12.2368 15.5362 12.2368 15.5362C12.2368 15.5362 9.47368 12.4573 9.47368 10.4046C9.47368 8.90463 10.7368 7.64147 12.2368 7.64147C13.7368 7.64147 15 8.90463 15 10.4046ZM13.1842 10.4836C13.1842 10.0099 12.7105 9.53621 12.2368 9.53621C11.7632 9.53621 11.2895 9.93095 11.2895 10.4836C11.2895 10.9573 11.6842 11.4309 12.2368 11.4309C12.7895 11.4309 13.2632 10.9573 13.1842 10.4836Z" fill="#5E5B5B"/>
</g>
<defs>
<clipPath id="clip0_420_165">
<rect width="15" height="15" fill="white" transform="translate(0 0.158997)"/>
</clipPath>
</defs>
</svg>
